<svg width="39" height="40" viewBox="0 0 39 40" fill="none" xmlns="http://www.w3.org/2000/svg">
<g clip-path="url(#clip0)">
<path fill-rule="evenodd" clip-rule="evenodd" d="M19.5 0C24.6717 0 29.6316 2.10714 33.2886 5.85786C36.9455 9.60859 39 14.6957 39 20C39 25.3043 36.9455 30.3914 33.2886 34.1421C29.6316 37.8929 24.6717 40 19.5 40C14.3283 40 9.36838 37.8929 5.71142 34.1421C2.05446 30.3914 0 25.3043 0 20C0 14.6957 2.05446 9.60859 5.71142 5.85786C9.36838 2.10714 14.3283 0 19.5 0ZM12.1875 18.75C11.8643 18.75 11.5543 18.8817 11.3257 19.1161C11.0972 19.3505 10.9688 19.6685 10.9688 20C10.9688 20.3315 11.0972 20.6495 11.3257 20.8839C11.5543 21.1183 11.8643 21.25 12.1875 21.25H23.8704L18.6371 26.615C18.5238 26.7312 18.4339 26.8692 18.3726 27.021C18.3113 27.1729 18.2797 27.3356 18.2797 27.5C18.2797 27.6644 18.3113 27.8271 18.3726 27.979C18.4339 28.1308 18.5238 28.2688 18.6371 28.385C18.7504 28.5012 18.885 28.5934 19.033 28.6563C19.1811 28.7192 19.3397 28.7516 19.5 28.7516C19.6603 28.7516 19.8189 28.7192 19.967 28.6563C20.115 28.5934 20.2496 28.5012 20.3629 28.385L27.6754 20.885C27.7889 20.7689 27.8789 20.6309 27.9404 20.4791C28.0018 20.3272 28.0334 20.1644 28.0334 20C28.0334 19.8356 28.0018 19.6728 27.9404 19.5209C27.8789 19.3691 27.7889 19.2311 27.6754 19.115L20.3629 11.615C20.134 11.3803 19.8236 11.2484 19.5 11.2484C19.1764 11.2484 18.866 11.3803 18.6371 11.615C18.4083 11.8497 18.2797 12.1681 18.2797 12.5C18.2797 12.8319 18.4083 13.1503 18.6371 13.385L23.8704 18.75H12.1875Z" fill="#E32121"/>
</g>
<defs>
<clipPath id="clip0">
<rect width="40" height="39" fill="white" transform="translate(0 40) rotate(-90)"/>
</clipPath>
</defs>
</svg>
